<svg xmlns="http://www.w3.org/2000/svg" width="20" height="20" viewBox="0 0 20 20" fill="none"><path d="M19.9221 9.11446C19.8529 9.02223 19.7605 8.92984 19.6221 8.90682L17.1532 8.35299C17.107 8.14535 17.061 7.96074 17.0148 7.77612L18.9992 6.18392C19.0914 6.11471 19.1608 5.9993 19.1608 5.8839C19.1838 5.76849 19.1378 5.63007 19.0686 5.53785L16.0687 1.75359C15.9071 1.54596 15.6302 1.52278 15.4226 1.68438L13.4382 3.27658C13.2535 3.18435 13.0921 3.09196 12.9075 3.02275L12.9073 0.461453C12.9073 0.207623 12.6997 0 12.4459 0H7.60017C7.34634 0 7.13872 0.207635 7.13872 0.461453V3.02275C6.93108 3.11498 6.74647 3.20737 6.56185 3.29959L4.55439 1.7306C4.46216 1.66138 4.34676 1.61519 4.20834 1.63837C4.09293 1.66138 3.97753 1.70758 3.90832 1.79997L0.908563 5.60721C0.746962 5.81485 0.793157 6.09187 0.977775 6.25331L2.98523 7.8455C2.93904 8.03012 2.89301 8.23775 2.84681 8.42237L0.354865 8.97608C0.101034 9.04529 -0.037385 9.2761 0.00880978 9.52992L1.11635 14.2372C1.13937 14.3526 1.20858 14.468 1.32399 14.514C1.3932 14.5602 1.48559 14.5832 1.57782 14.5832C1.62402 14.5832 1.64703 14.5832 1.69323 14.5602L4.1853 13.9833C4.3007 14.1449 4.41611 14.3064 4.55453 14.4448L3.44698 16.7523C3.33158 16.9831 3.42397 17.2599 3.65462 17.3753L8.01574 19.452C8.08495 19.475 8.15416 19.4982 8.22338 19.4982C8.38498 19.4982 8.56943 19.4059 8.63864 19.2443L9.74618 16.9369H10.023H10.3461L11.4536 19.2443C11.4998 19.3597 11.592 19.4289 11.7074 19.4751C11.7536 19.4982 11.7997 19.4982 11.869 19.4982C11.9383 19.4982 12.0075 19.4751 12.0767 19.452L16.4378 17.3521C16.5532 17.3059 16.6224 17.2137 16.6686 17.0983C16.7148 16.9829 16.6916 16.8445 16.6456 16.7522L15.5381 14.4448C15.6765 14.3063 15.7919 14.1447 15.9073 13.9833L18.353 14.5371H18.4452C18.5375 14.5371 18.6068 14.5141 18.6991 14.4679C18.7913 14.3987 18.8837 14.3063 18.9067 14.1679L19.9914 9.46067C20.0144 9.34542 19.9914 9.23002 19.9222 9.11461L19.9221 9.11446ZM18.1223 13.5217L15.7687 12.9909H15.7225H15.6763H15.6533H15.584H15.561C15.538 12.9909 15.5148 12.9909 15.4918 13.0139C15.4918 13.0139 15.4688 13.0139 15.4688 13.0369C15.4458 13.0369 15.4226 13.0599 15.4226 13.0599L15.3996 13.083C15.3766 13.083 15.3766 13.106 15.3534 13.106L15.3304 13.129C15.3072 13.1525 15.3072 13.1755 15.284 13.1987C15.0764 13.4987 14.8688 13.7755 14.6149 14.0294L14.5457 14.0986C14.5457 14.1216 14.5227 14.1216 14.5227 14.1448C14.5227 14.1678 14.4997 14.1678 14.4997 14.191C14.4997 14.214 14.4997 14.214 14.4767 14.2372V14.2834V14.3296V14.3757V14.4219V14.4681C14.4767 14.4912 14.4767 14.4912 14.4997 14.5143C14.4997 14.5373 14.4997 14.5373 14.5227 14.5605L15.561 16.7296L12.0306 18.4372L10.9923 16.2681C10.9693 16.2451 10.9693 16.2219 10.9461 16.1989C10.8769 16.1067 10.7845 16.0373 10.6692 16.0373H10.6462H10.6H10.5538C10.1846 16.0603 9.81535 16.0603 9.46931 16.0373H9.42312H9.37693H9.35391C9.33089 16.0373 9.30771 16.0373 9.2847 16.0603H9.26168C9.23866 16.0603 9.21549 16.0833 9.19247 16.0833C9.19247 16.0833 9.16945 16.0833 9.16945 16.1063C9.14644 16.1063 9.14644 16.1294 9.12326 16.1525L9.03103 16.2448C9.03103 16.2678 9.00801 16.2678 9.00801 16.291L7.96969 18.46L4.46213 16.7521L5.50045 14.5831C5.50045 14.56 5.52347 14.56 5.52347 14.5369C5.52347 14.5138 5.52347 14.5138 5.54648 14.4907V14.4445V14.3983V14.3521V14.3059V14.2597V14.2135C5.54648 14.1905 5.52347 14.1905 5.52347 14.1673C5.52347 14.1443 5.50045 14.1443 5.50045 14.1211L5.47743 14.0981C5.47743 14.0751 5.45442 14.0751 5.45442 14.0519C5.20059 13.775 4.96976 13.4981 4.78533 13.2212C4.78533 13.1982 4.76231 13.1982 4.73914 13.175L4.71612 13.152C4.6931 13.129 4.6931 13.129 4.66993 13.129L4.64691 13.106C4.62389 13.106 4.62389 13.0829 4.60071 13.0829C4.60071 13.0829 4.5777 13.0829 4.5777 13.0599C4.55468 13.0599 4.55468 13.0599 4.5315 13.0369H4.50849H4.46229H4.4161H4.3699H4.32371L1.9932 13.5907L1.09329 9.7835L3.3544 9.22979H3.37742C3.40044 9.22979 3.42362 9.22979 3.42362 9.20677C3.42362 9.20677 3.44663 9.20677 3.44663 9.18375C3.46965 9.18375 3.46965 9.16074 3.49283 9.16074L3.51584 9.13772C3.53886 9.13772 3.53886 9.11471 3.56204 9.11471L3.58505 9.09169C3.58505 9.06867 3.60807 9.06867 3.60807 9.04549L3.63109 9.02248C3.63109 8.99946 3.6541 8.99946 3.6541 8.97628C3.6541 8.97628 3.6541 8.95327 3.67712 8.95327C3.67712 8.93025 3.67712 8.93025 3.70014 8.90707V8.86088C3.74633 8.49164 3.81554 8.1456 3.93095 7.79936C3.93095 7.75316 3.95397 7.73014 3.95397 7.68395V7.66093V7.61474V7.56854C3.95397 7.54553 3.95397 7.54553 3.93095 7.52235C3.93095 7.49933 3.93095 7.49933 3.90793 7.47615C3.90793 7.45314 3.88492 7.45314 3.88492 7.42996C3.88492 7.40694 3.8619 7.40694 3.8619 7.40694C3.8619 7.38392 3.83888 7.38393 3.83888 7.36075L3.81587 7.33773L3.79285 7.31471L1.90064 5.83793L4.32353 2.76899L6.21574 4.24578C6.23875 4.24578 6.23875 4.26879 6.26193 4.26879L6.28495 4.29181C6.30797 4.31483 6.35416 4.31483 6.37718 4.33801H6.4002H6.49242H6.51544H6.53846C6.56147 4.33801 6.60767 4.338 6.63069 4.31499H6.6537C6.6999 4.31499 6.72291 4.29197 6.76911 4.26879C7.09215 4.08418 7.4152 3.92274 7.78444 3.78414C7.80745 3.78414 7.80745 3.76113 7.83063 3.76113L7.85365 3.73811C7.87666 3.73811 7.87667 3.71509 7.89984 3.71509L7.94588 3.66906L7.96889 3.64604C7.96889 3.62302 7.99191 3.62302 7.99191 3.59985C7.99191 3.57683 8.01493 3.57683 8.01493 3.55365C8.01493 3.53064 8.01493 3.53064 8.03794 3.50746C8.03794 3.48444 8.03794 3.48444 8.06096 3.46126V3.41507V3.36887L8.06176 0.922829H11.9844V3.32252V3.36871V3.41491C11.9844 3.43792 11.9844 3.43792 12.0074 3.4611C12.0074 3.48412 12.0074 3.48412 12.0305 3.5073C12.0305 3.53031 12.0535 3.53031 12.0535 3.55349C12.0535 3.57651 12.0765 3.57651 12.0765 3.59969C12.0765 3.6227 12.0995 3.6227 12.0995 3.64588L12.1225 3.6689C12.1225 3.6689 12.1455 3.69191 12.1687 3.69191C12.1917 3.69191 12.1917 3.71493 12.2149 3.71493C12.2149 3.71493 12.2379 3.73795 12.2611 3.73795C12.2841 3.73795 12.2841 3.76096 12.3073 3.76096C12.6303 3.87637 12.9534 4.03781 13.2764 4.22242C13.2995 4.24543 13.3457 4.24543 13.3687 4.26861H13.3917H13.4839H13.5069H13.53C13.553 4.26861 13.5992 4.26861 13.6222 4.24559H13.6452C13.6682 4.24559 13.7144 4.22258 13.7374 4.1994C13.7374 4.1994 13.7604 4.1994 13.7604 4.17638C13.7835 4.17638 13.7835 4.15337 13.8066 4.15337L15.6756 2.65359L18.0762 5.7454L16.2071 7.24517C16.1841 7.24517 16.1841 7.26819 16.161 7.29137L16.1379 7.31438C16.1379 7.3374 16.1149 7.3374 16.1149 7.36058C16.1149 7.3836 16.0919 7.3836 16.0919 7.40677C16.0919 7.42979 16.0689 7.42979 16.0689 7.45297C16.0689 7.47599 16.0689 7.47599 16.0459 7.49916V7.54536V7.59155V7.63775V7.68394V7.73014V7.77633C16.1613 8.09937 16.2305 8.44542 16.2767 8.81465V8.83767V8.88386C16.2767 8.90688 16.2767 8.90688 16.2997 8.93006C16.2997 8.95308 16.2997 8.95308 16.3227 8.97625C16.3227 8.99927 16.3457 8.99927 16.3457 9.02245C16.3457 9.04547 16.3687 9.04547 16.3687 9.06864L16.3918 9.09166C16.3918 9.11468 16.4148 9.11468 16.4148 9.13785L16.4378 9.16087C16.4608 9.16087 16.4608 9.18389 16.484 9.18389C16.484 9.18389 16.507 9.18389 16.507 9.20691C16.53 9.20691 16.53 9.22992 16.5532 9.22992H16.5762C16.5992 9.22992 16.5992 9.25294 16.6224 9.25294L18.9529 9.78362L18.1223 13.5217Z" fill="#010D14"></path><path d="M12.8382 9.22975H10.4847V6.85305C10.4847 6.59922 10.2771 6.3916 10.0233 6.3916C9.76946 6.3916 9.56182 6.59924 9.56182 6.85305V9.22975H7.18496C6.93113 9.22975 6.72351 9.43739 6.72351 9.6912C6.72351 9.94502 6.93115 10.1527 7.18496 10.1527H9.53863V12.5294C9.53863 12.7832 9.74626 12.9908 10.0001 12.9908C10.2539 12.9908 10.4615 12.7832 10.4615 12.5294V10.1527H12.8382C13.0921 10.1527 13.2997 9.94502 13.2997 9.6912C13.2997 9.43739 13.092 9.22975 12.8382 9.22975Z" fill="#010D14"></path></svg>