<svg xmlns="http://www.w3.org/2000/svg" width="15" height="22" viewBox="0 0 15 22" fill="none"><path d="M4.71213 4.04656H7.30615C7.08147 2.88358 6.05829 2.00584 4.82994 2.00584C3.43745 2.00584 2.30757 3.13605 2.30757 4.5282C2.30757 5.22455 2.5902 5.85532 3.04635 6.31146C3.24311 6.50887 3.47245 6.67367 3.72571 6.79682L4.39801 4.28784C4.43675 4.14241 4.5683 4.04653 4.71211 4.04653L4.71213 4.04656ZM7.57428 1.32342C7.87709 1.02061 8.33761 1.48111 8.03481 1.78394L7.29198 2.52677C7.64046 2.95498 7.87985 3.47571 7.967 4.04661L12.2508 4.04628C12.4735 4.04628 12.6293 4.26548 12.5602 4.47371L10.4065 12.5115L14.9522 20.3848C15.1663 20.7543 14.6041 21.0799 14.3901 20.7106L10.1687 13.3988L8.17883 20.8254C8.14009 20.9709 8.00854 21.0664 7.86472 21.0664L0.325669 21.0669C0.102923 21.0669 -0.0525151 20.8474 0.0165656 20.6395L3.55486 7.43406C3.29224 7.31865 3.04834 7.16838 2.82835 6.98937L2.08523 7.73249C1.78242 8.03529 1.3219 7.57511 1.6247 7.27229L2.36782 6.52917C1.9877 6.06204 1.73751 5.48486 1.6728 4.85356H0.622995C0.194784 4.85356 0.194784 4.20225 0.622995 4.20225H1.67247C1.73703 3.57016 1.98706 2.99311 2.36716 2.52585L1.6245 1.78352C1.32169 1.48071 1.78219 1.02019 2.08502 1.32299L2.82769 2.06566C3.29482 1.68553 3.872 1.43534 4.50392 1.37096V0.321159C4.50392 -0.107053 5.15523 -0.107053 5.15523 0.321159V1.37113C5.78682 1.43569 6.36404 1.68572 6.83117 2.06582L7.574 1.32299L7.57428 1.32342ZM2.21906 14.9325H5.31542L6.58848 10.181H3.49245L2.21906 14.9325ZM5.9885 14.9325H9.08453L10.3576 10.181H7.2619L5.9885 14.9325ZM8.90987 15.5839H5.81417L4.51949 20.4164H7.61519L8.90987 15.5839ZM5.14076 15.5839H2.04472L0.750049 20.4164H3.84608L5.14076 15.5839ZM3.66708 9.52989H6.76311L8.05778 4.69779H4.96175L3.66708 9.52989ZM7.43652 9.52989H10.5322L11.8269 4.69779H8.73119L7.43652 9.52989Z" fill="#010D14"></path></svg>