<svg xmlns="http://www.w3.org/2000/svg" width="18" height="25" viewBox="0 0 18 25" fill="none"><path d="M17.4864 14.468C16.8997 13.5905 15.9123 13.0655 14.8567 13.0697H12.7234L12.7236 11.033C12.7129 10.0884 13.1019 9.18339 13.7942 8.54107C13.9538 8.39669 14.1089 8.27624 14.2508 8.16571C14.4802 8.00186 14.689 7.81097 14.8724 7.59693C15.565 6.71331 15.7026 3.71237 13.8493 1.46074L13.8495 1.46094C13.737 1.32433 13.5533 1.26926 13.3844 1.32122C13.2155 1.37337 13.0947 1.52223 13.0787 1.69833C13.0145 2.40331 12.8913 3.10172 12.7106 3.78627C12.5504 4.39047 12.3461 4.98222 12.0992 5.55664L9.67381 4.78839L10.9756 0.56445C11.0264 0.399827 10.9756 0.221002 10.846 0.107748C10.7164 -0.00569506 10.5321 -0.0319674 10.3761 0.0404184C9.02407 0.648507 7.89895 1.66856 7.16149 2.95438C6.75324 3.68352 5.79741 5.39122 6.48023 6.84616L6.48003 6.84636C6.7112 7.29411 7.02565 7.69341 7.40703 8.02283C7.52204 8.13394 7.6382 8.24622 7.75087 8.36765C8.1885 8.84595 8.42805 9.47234 8.42163 10.1205V11.6426C7.12644 12.2116 5.86434 12.8526 4.64078 13.5624C4.46468 13.4791 4.27223 13.4356 4.07743 13.4348H1.34638C0.989506 13.4352 0.647233 13.5772 0.394822 13.8296C0.14244 14.082 0.000388555 14.4243 0 14.7812V22.9179C0.000389153 23.2748 0.14244 23.6171 0.394822 23.8693C0.647203 24.1217 0.989511 24.2635 1.34638 24.2639H4.07743C4.36211 24.2631 4.63919 24.1715 4.86804 24.002C5.09512 24.1039 5.33019 24.1865 5.57107 24.2489C5.60805 24.2588 5.64619 24.2639 5.68452 24.2639H13.4183C13.8452 24.2664 14.2634 24.1423 14.6196 23.9072C14.9761 23.672 15.255 23.3365 15.4208 22.943L17.7638 17.3379C18.1582 16.3953 18.0539 15.3177 17.4863 14.4681L17.4864 14.468ZM8.3892 7.77443C8.26583 7.64152 8.13896 7.51815 8.01306 7.39692L8.01325 7.39673C7.70969 7.13929 7.45712 6.82695 7.26912 6.47615C6.77662 5.42656 7.5793 3.99279 7.92194 3.38026C8.38507 2.56141 9.03635 1.8644 9.82193 1.34683L8.71315 4.9446H8.71296C8.64251 5.17344 8.76958 5.41628 8.99784 5.48867L12.206 6.50519V6.505C12.4146 6.57174 12.6405 6.4727 12.7327 6.27402C13.0727 5.54489 13.3473 4.78695 13.5531 4.00939C13.6466 3.65602 13.7257 3.29854 13.7905 2.93683C14.7394 4.72762 14.5105 6.64509 14.1861 7.0594C14.0447 7.21585 13.8863 7.35634 13.7141 7.47816C13.5572 7.60075 13.3864 7.73482 13.2097 7.89399C12.3343 8.70174 11.8409 9.84185 11.8516 11.0329V13.0697H9.29321V10.1207C9.30002 9.25224 8.977 8.41376 8.38917 7.77454L8.3892 7.77443ZM1.34639 23.3919C1.08447 23.3917 0.872177 23.1796 0.871788 22.9176V14.7809C0.871983 14.5188 1.08447 14.3065 1.34639 14.3063H4.07743C4.33935 14.3067 4.55164 14.519 4.55184 14.7809V22.9176C4.55145 23.1796 4.33935 23.3915 4.07743 23.3919H1.34639ZM16.9593 17.0011L14.6165 22.6063C14.5169 22.8409 14.3497 23.0408 14.1364 23.1807C13.9232 23.3204 13.6733 23.3938 13.4184 23.3916H5.74345C5.60277 23.3523 5.48057 23.3115 5.3712 23.2692C5.40448 23.1548 5.42199 23.0365 5.42374 22.9174V14.7807C5.42257 14.5762 5.37412 14.3746 5.28228 14.1917C6.24804 13.6166 7.63309 12.9611 8.42161 12.5995V13.505H8.4218C8.42161 13.6205 8.46753 13.7315 8.54945 13.8132C8.63118 13.8949 8.7419 13.9408 8.85768 13.9408H14.8569C15.6206 13.9369 16.3356 14.3162 16.7607 14.9506C17.1717 15.5556 17.2466 16.3283 16.9594 17.001L16.9593 17.0011Z" fill="#010D14"></path></svg>