<svg xmlns="http://www.w3.org/2000/svg" width="21" height="17" viewBox="0 0 21 17" fill="none"><path d="M20.2501 7.77781L10.3552 15.7858L4.6944 12.2419L5.54578 10.8843L1.42674 10.7463L3.35966 14.405L4.21104 13.0474L8.7903 15.9008L0.460186 15.9007C0.207053 15.9007 0 16.1078 0 16.3609C0 16.614 0.207065 16.8211 0.460186 16.8211H19.5596C19.8127 16.8211 20.0198 16.614 20.0198 16.3609C20.0198 16.1077 19.8127 15.9007 19.5596 15.9007H11.6897L20.8252 8.51404C21.0323 8.35288 21.0554 8.05386 20.8943 7.86972C20.7331 7.66266 20.4341 7.61675 20.2499 7.77775L20.2501 7.77781Z" fill="#010D14"></path><path d="M10.7004 12.4721C12.6333 12.4721 14.1981 10.9533 14.1981 9.06642C14.1981 7.38664 11.4368 0.989439 11.1376 0.276087C11.0686 0.114929 10.9074 0 10.7235 0C10.5394 0 10.3553 0.114929 10.2631 0.276087C9.94099 0.989398 7.20264 7.3866 7.20264 9.06642C7.2028 10.9533 8.76749 12.4721 10.7004 12.4721H10.7004ZM10.7004 1.63372C11.6668 3.95794 13.2546 7.98485 13.2546 9.06638C13.2546 10.4471 12.1041 11.5516 10.6774 11.5516C9.25073 11.5516 8.10016 10.4471 8.10016 9.06638C8.12311 7.98501 9.71091 3.95786 10.7003 1.63372H10.7004Z" fill="#010D14"></path></svg>