<svg xmlns="http://www.w3.org/2000/svg" width="23" height="17" viewBox="0 0 23 17" fill="none"><path d="M5.87762 16.1933H14.904C19.3688 16.1933 23 12.5608 23 8.09601C23 3.63118 19.3685 0 14.904 0C11.7164 0 8.86884 1.83159 7.55341 4.69625C7.00368 4.52604 6.44143 4.43949 5.87741 4.43949C2.63703 4.43949 0 7.0764 0 10.3169C0 13.5573 2.63691 16.1931 5.87741 16.1931L5.87762 16.1933ZM5.87762 5.2094C6.46771 5.2094 7.05763 5.31896 7.62651 5.53614C7.82166 5.60822 8.04173 5.51507 8.11961 5.32089C9.24493 2.55623 11.9068 0.770847 14.9039 0.770847C18.9438 0.770847 22.2302 4.0574 22.2302 8.09713C22.2302 12.138 18.9436 15.4246 14.9039 15.4246H5.87754C3.05995 15.4246 0.769859 13.1338 0.769859 10.3182C0.769859 7.50255 3.06074 5.20969 5.87754 5.20969L5.87762 5.2094Z" fill="#010D14"></path><path d="M10.1068 9.35792C10.2106 9.35792 10.3153 9.31561 10.3912 9.23195L11.1187 8.43335V11.4546C11.1187 11.6669 11.2917 11.8389 11.5031 11.8389C11.7144 11.8389 11.8874 11.666 11.8874 11.4546V8.43351L12.61 9.22438C12.685 9.30803 12.7897 9.35034 12.8935 9.35034C12.9867 9.35034 13.079 9.31672 13.153 9.24947C13.3097 9.10726 13.3211 8.86417 13.177 8.70749L11.7856 7.18334C11.7846 7.18237 11.7827 7.18141 11.7817 7.18044C11.7759 7.17465 11.7711 7.16886 11.7653 7.16403C11.7634 7.1621 11.7624 7.15921 11.7605 7.15824C11.7489 7.14762 11.7346 7.14376 11.722 7.13524C11.7133 7.12848 11.7038 7.12269 11.6942 7.11706C11.6816 7.10934 11.6702 7.09791 11.6567 7.09212C11.6509 7.08923 11.6442 7.08826 11.6376 7.08537C11.6184 7.07764 11.5981 7.07668 11.578 7.07282C11.555 7.06799 11.5328 7.06027 11.5098 7.0593C11.5069 7.0593 11.505 7.05737 11.5021 7.05737C11.4992 7.05737 11.4963 7.0593 11.4924 7.0593C11.4694 7.0593 11.4482 7.06703 11.4262 7.07185C11.4051 7.07668 11.3829 7.07764 11.3628 7.08633C11.358 7.08826 11.3531 7.08923 11.3483 7.09116C11.3253 7.10081 11.307 7.11802 11.2859 7.1325C11.2714 7.14216 11.2552 7.14698 11.2416 7.15937C11.2397 7.1613 11.2387 7.1642 11.2368 7.16613C11.233 7.16999 11.2291 7.17288 11.2252 7.17674C11.2223 7.17964 11.2185 7.1806 11.2156 7.1835L9.8203 8.71519C9.67808 8.87188 9.6887 9.11496 9.84523 9.25816C9.92133 9.32428 10.0135 9.3579 10.1068 9.3579L10.1068 9.35792Z" fill="#010D14"></path></svg>