<svg xmlns="http://www.w3.org/2000/svg" width="23" height="23" viewBox="0 0 23 23" fill="none"><path d="M15.0834 16.0364C15.0315 15.9014 14.9104 15.8049 14.767 15.7844L12.3455 15.4384L14.2036 12.0932C14.2726 11.9697 14.2709 11.8186 14.199 11.6966C14.1273 11.5744 13.9962 11.4995 13.8546 11.4997H10.8579C10.7092 11.4997 10.5726 11.5825 10.5037 11.7144L7.93559 16.637C7.87977 16.7442 7.87549 16.871 7.92382 16.9818C7.97233 17.0925 8.06828 17.1755 8.18491 17.2072L10.1617 17.7463L8.97247 22.5037C8.92735 22.6843 9.01314 22.8723 9.17917 22.9567C9.34521 23.041 9.54763 22.9995 9.66696 22.8562L15.0178 16.4352C15.1102 16.324 15.1355 16.1713 15.0836 16.0361L15.0834 16.0364ZM10.1708 21.0037L11.031 17.5612H11.0312C11.0841 17.3504 10.9586 17.1359 10.7487 17.0788L8.87342 16.5672L11.1002 12.2989H13.1757L11.3652 15.5579H11.365C11.3012 15.673 11.298 15.8119 11.3565 15.9296C11.4148 16.0475 11.5275 16.1288 11.6577 16.1475L13.9453 16.4743L10.1708 21.0037ZM18.6906 11.5001C18.6864 13.7994 17.5869 15.9592 15.73 17.3157C15.5516 17.4455 15.3018 17.4065 15.1719 17.2281C15.0419 17.0498 15.0811 16.7999 15.2595 16.6701C16.7028 15.6204 17.6416 14.0151 17.8487 12.2424C18.0559 10.4698 17.5125 8.69142 16.3501 7.33714C15.1876 5.98285 13.5119 5.17635 11.7283 5.11266C9.94494 5.04881 8.21587 5.73367 6.95961 7.00129C5.70353 8.26897 5.0344 10.0042 5.11448 11.7869C5.19456 13.5698 6.01618 15.238 7.38088 16.3881C7.46202 16.4564 7.51267 16.5541 7.52159 16.6597C7.53068 16.7653 7.49733 16.8702 7.42903 16.9511C7.36072 17.0321 7.26299 17.0826 7.15741 17.0917C7.05166 17.1006 6.94697 17.067 6.866 16.9987C4.98805 15.4161 4.04768 12.9844 4.37206 10.5499C4.69665 8.1157 6.24093 6.01517 8.46788 4.97989C10.6948 3.94423 13.296 4.1169 15.3669 5.43749C17.4375 6.75813 18.6909 9.04411 18.6909 11.5001L18.6906 11.5001ZM11.1004 2.41779V0.399487C11.1004 0.178879 11.2793 0 11.4999 0C11.7205 0 11.8994 0.178879 11.8994 0.399487V2.41779C11.8994 2.63839 11.7205 2.81727 11.4999 2.81727C11.2793 2.81727 11.1004 2.63839 11.1004 2.41779ZM23.0001 11.5001C23.0001 11.606 22.958 11.7077 22.8831 11.7826C22.8082 11.8575 22.7065 11.8996 22.6006 11.8996H20.5825C20.3619 11.8996 20.183 11.7207 20.183 11.5001C20.183 11.2795 20.3619 11.1006 20.5825 11.1006H22.6006C22.7065 11.1006 22.8082 11.1427 22.8831 11.2176C22.958 11.2925 23.0001 11.3941 23.0001 11.5001ZM2.81709 11.5001C2.81709 11.606 2.775 11.7077 2.7001 11.7826C2.62519 11.8575 2.52354 11.8996 2.4176 11.8996H0.399487C0.178879 11.8996 0 11.7207 0 11.5001C0 11.2795 0.178879 11.1006 0.399487 11.1006H2.4176C2.52354 11.1006 2.6252 11.1427 2.7001 11.2176C2.775 11.2925 2.81709 11.3941 2.81709 11.5001ZM19.6316 3.36834C19.7065 3.44324 19.7486 3.54472 19.7486 3.65065C19.7486 3.75659 19.7065 3.85825 19.6316 3.93315L18.2045 5.36043C18.0486 5.51649 17.7957 5.51649 17.6397 5.36043C17.4837 5.20438 17.4837 4.9515 17.6397 4.79563L19.0668 3.36834C19.1417 3.29326 19.2432 3.25117 19.3493 3.25117C19.4552 3.25117 19.5567 3.29326 19.6316 3.36834L19.6316 3.36834ZM19.6316 19.0675C19.7877 19.2234 19.7877 19.4764 19.6316 19.6323C19.4757 19.7883 19.2227 19.7883 19.0668 19.6323L17.6397 18.205C17.4837 18.0491 17.4837 17.7962 17.6397 17.6402C17.7958 17.4842 18.0486 17.4842 18.2045 17.6402L19.6316 19.0675ZM3.36815 3.93355C3.2121 3.7775 3.2121 3.52462 3.36815 3.36875C3.52403 3.2127 3.77709 3.2127 3.93296 3.36875L5.36006 4.79604C5.51612 4.95191 5.51612 5.20479 5.36006 5.36084C5.20401 5.51689 4.95113 5.51689 4.79526 5.36084L3.36815 3.93355ZM5.36006 17.6403C5.43497 17.7152 5.47706 17.8167 5.47706 17.9228C5.47706 18.0287 5.43497 18.1302 5.36006 18.2051L3.93296 19.6324C3.77709 19.7884 3.52402 19.7884 3.36815 19.6324C3.2121 19.4765 3.2121 19.2236 3.36815 19.0676L4.79526 17.6403C4.87016 17.5654 4.97164 17.5233 5.07757 17.5233C5.18351 17.5233 5.28517 17.5654 5.36007 17.6403L5.36006 17.6403Z" fill="#010D14"></path></svg>